<mxfile host="app.diagrams.net" agent="Mozilla/5.0 (Windows NT 10.0; Win64; x64) AppleWebKit/537.36 (KHTML, like Gecko) Chrome/126.0.0.0 Safari/537.36 Edg/126.0.0.0" version="24.8.4">
  <diagram id="prtHgNgQTEPvFCAcTncT" name="Page-1">
    <mxGraphModel dx="1173" dy="772" grid="1" gridSize="10" guides="1" tooltips="1" connect="1" arrows="1" fold="1" page="1" pageScale="1" pageWidth="827" pageHeight="1169" math="0" shadow="0">
      <root>
        <mxCell id="0" />
        <mxCell id="1" parent="0" />
        <mxCell id="pFfpm0XYieJXTrMUy0P4-1" value="" style="rounded=0;whiteSpace=wrap;html=1;fillColor=#ffe6cc;strokeColor=#d79b00;" parent="1" vertex="1">
          <mxGeometry x="174" y="180" width="476" height="130" as="geometry" />
        </mxCell>
        <mxCell id="pFfpm0XYieJXTrMUy0P4-2" value="" style="rounded=0;whiteSpace=wrap;html=1;fillColor=#d5e8d4;strokeColor=#82b366;" parent="1" vertex="1">
          <mxGeometry x="200" y="180" width="120" height="60" as="geometry" />
        </mxCell>
        <mxCell id="pFfpm0XYieJXTrMUy0P4-3" value="" style="rounded=0;whiteSpace=wrap;html=1;fillColor=#d5e8d4;strokeColor=#82b366;" parent="1" vertex="1">
          <mxGeometry x="500" y="180" width="120" height="60" as="geometry" />
        </mxCell>
        <mxCell id="pFfpm0XYieJXTrMUy0P4-4" value="" style="rounded=0;whiteSpace=wrap;html=1;fillColor=#f8cecc;strokeColor=#b85450;" parent="1" vertex="1">
          <mxGeometry x="352" y="150" width="120" height="30" as="geometry" />
        </mxCell>
        <mxCell id="pFfpm0XYieJXTrMUy0P4-5" value="" style="rounded=0;whiteSpace=wrap;html=1;fillColor=#dae8fc;strokeColor=#6c8ebf;" parent="1" vertex="1">
          <mxGeometry x="220" y="150" width="80" height="30" as="geometry" />
        </mxCell>
        <mxCell id="pFfpm0XYieJXTrMUy0P4-6" value="" style="rounded=0;whiteSpace=wrap;html=1;fillColor=#dae8fc;strokeColor=#6c8ebf;" parent="1" vertex="1">
          <mxGeometry x="520" y="150" width="80" height="30" as="geometry" />
        </mxCell>
        <mxCell id="pFfpm0XYieJXTrMUy0P4-7" value="" style="rounded=0;whiteSpace=wrap;html=1;fillColor=#dae8fc;strokeColor=#6c8ebf;" parent="1" vertex="1">
          <mxGeometry x="374" y="130" width="80" height="20" as="geometry" />
        </mxCell>
        <mxCell id="pFfpm0XYieJXTrMUy0P4-15" value="Source" style="text;strokeColor=none;fillColor=none;align=left;verticalAlign=middle;spacingLeft=4;spacingRight=4;overflow=hidden;points=[[0,0.5],[1,0.5]];portConstraint=eastwest;rotatable=0;whiteSpace=wrap;html=1;" parent="1" vertex="1">
          <mxGeometry x="232" y="155" width="60" height="20" as="geometry" />
        </mxCell>
        <mxCell id="pFfpm0XYieJXTrMUy0P4-16" value="Drain" style="text;strokeColor=none;fillColor=none;align=left;verticalAlign=middle;spacingLeft=4;spacingRight=4;overflow=hidden;points=[[0,0.5],[1,0.5]];portConstraint=eastwest;rotatable=0;whiteSpace=wrap;html=1;" parent="1" vertex="1">
          <mxGeometry x="540" y="155" width="60" height="20" as="geometry" />
        </mxCell>
        <mxCell id="pFfpm0XYieJXTrMUy0P4-17" value="Gate" style="text;strokeColor=none;fillColor=none;align=left;verticalAlign=middle;spacingLeft=4;spacingRight=4;overflow=hidden;points=[[0,0.5],[1,0.5]];portConstraint=eastwest;rotatable=0;whiteSpace=wrap;html=1;" parent="1" vertex="1">
          <mxGeometry x="394" y="130" width="60" height="20" as="geometry" />
        </mxCell>
        <mxCell id="pFfpm0XYieJXTrMUy0P4-18" value="n-channel" style="text;strokeColor=none;fillColor=none;align=left;verticalAlign=middle;spacingLeft=4;spacingRight=4;overflow=hidden;points=[[0,0.5],[1,0.5]];portConstraint=eastwest;rotatable=0;whiteSpace=wrap;html=1;" parent="1" vertex="1">
          <mxGeometry x="222" y="195" width="80" height="30" as="geometry" />
        </mxCell>
        <mxCell id="pFfpm0XYieJXTrMUy0P4-19" value="n-channel" style="text;strokeColor=none;fillColor=none;align=left;verticalAlign=middle;spacingLeft=4;spacingRight=4;overflow=hidden;points=[[0,0.5],[1,0.5]];portConstraint=eastwest;rotatable=0;whiteSpace=wrap;html=1;" parent="1" vertex="1">
          <mxGeometry x="530" y="195" width="80" height="30" as="geometry" />
        </mxCell>
        <mxCell id="pFfpm0XYieJXTrMUy0P4-20" value="p-substrate" style="text;strokeColor=none;fillColor=none;align=left;verticalAlign=middle;spacingLeft=4;spacingRight=4;overflow=hidden;points=[[0,0.5],[1,0.5]];portConstraint=eastwest;rotatable=0;whiteSpace=wrap;html=1;" parent="1" vertex="1">
          <mxGeometry x="374" y="260" width="80" height="30" as="geometry" />
        </mxCell>
        <mxCell id="pFfpm0XYieJXTrMUy0P4-21" value="dielectric" style="text;strokeColor=none;fillColor=none;align=left;verticalAlign=middle;spacingLeft=4;spacingRight=4;overflow=hidden;points=[[0,0.5],[1,0.5]];portConstraint=eastwest;rotatable=0;whiteSpace=wrap;html=1;" parent="1" vertex="1">
          <mxGeometry x="384" y="150" width="80" height="30" as="geometry" />
        </mxCell>
        <mxCell id="pFfpm0XYieJXTrMUy0P4-22" value="" style="rounded=0;whiteSpace=wrap;html=1;fillColor=#d5e8d4;strokeColor=#82b366;" parent="1" vertex="1">
          <mxGeometry x="174" y="420" width="476" height="130" as="geometry" />
        </mxCell>
        <mxCell id="pFfpm0XYieJXTrMUy0P4-23" value="" style="rounded=0;whiteSpace=wrap;html=1;fillColor=#ffe6cc;strokeColor=#d79b00;" parent="1" vertex="1">
          <mxGeometry x="200" y="420" width="120" height="60" as="geometry" />
        </mxCell>
        <mxCell id="pFfpm0XYieJXTrMUy0P4-24" value="" style="rounded=0;whiteSpace=wrap;html=1;fillColor=#ffe6cc;strokeColor=#d79b00;" parent="1" vertex="1">
          <mxGeometry x="500" y="420" width="120" height="60" as="geometry" />
        </mxCell>
        <mxCell id="pFfpm0XYieJXTrMUy0P4-25" value="" style="rounded=0;whiteSpace=wrap;html=1;fillColor=#f8cecc;strokeColor=#b85450;" parent="1" vertex="1">
          <mxGeometry x="352" y="390" width="120" height="30" as="geometry" />
        </mxCell>
        <mxCell id="pFfpm0XYieJXTrMUy0P4-26" value="" style="rounded=0;whiteSpace=wrap;html=1;fillColor=#dae8fc;strokeColor=#6c8ebf;" parent="1" vertex="1">
          <mxGeometry x="220" y="390" width="80" height="30" as="geometry" />
        </mxCell>
        <mxCell id="pFfpm0XYieJXTrMUy0P4-27" value="" style="rounded=0;whiteSpace=wrap;html=1;fillColor=#dae8fc;strokeColor=#6c8ebf;" parent="1" vertex="1">
          <mxGeometry x="520" y="390" width="80" height="30" as="geometry" />
        </mxCell>
        <mxCell id="pFfpm0XYieJXTrMUy0P4-28" value="" style="rounded=0;whiteSpace=wrap;html=1;fillColor=#dae8fc;strokeColor=#6c8ebf;" parent="1" vertex="1">
          <mxGeometry x="374" y="370" width="80" height="20" as="geometry" />
        </mxCell>
        <mxCell id="pFfpm0XYieJXTrMUy0P4-29" value="Source" style="text;strokeColor=none;fillColor=none;align=left;verticalAlign=middle;spacingLeft=4;spacingRight=4;overflow=hidden;points=[[0,0.5],[1,0.5]];portConstraint=eastwest;rotatable=0;whiteSpace=wrap;html=1;" parent="1" vertex="1">
          <mxGeometry x="232" y="395" width="60" height="20" as="geometry" />
        </mxCell>
        <mxCell id="pFfpm0XYieJXTrMUy0P4-30" value="Drain" style="text;strokeColor=none;fillColor=none;align=left;verticalAlign=middle;spacingLeft=4;spacingRight=4;overflow=hidden;points=[[0,0.5],[1,0.5]];portConstraint=eastwest;rotatable=0;whiteSpace=wrap;html=1;" parent="1" vertex="1">
          <mxGeometry x="540" y="395" width="60" height="20" as="geometry" />
        </mxCell>
        <mxCell id="pFfpm0XYieJXTrMUy0P4-31" value="Gate" style="text;strokeColor=none;fillColor=none;align=left;verticalAlign=middle;spacingLeft=4;spacingRight=4;overflow=hidden;points=[[0,0.5],[1,0.5]];portConstraint=eastwest;rotatable=0;whiteSpace=wrap;html=1;" parent="1" vertex="1">
          <mxGeometry x="394" y="370" width="60" height="20" as="geometry" />
        </mxCell>
        <mxCell id="pFfpm0XYieJXTrMUy0P4-32" value="p-channel" style="text;strokeColor=none;fillColor=none;align=left;verticalAlign=middle;spacingLeft=4;spacingRight=4;overflow=hidden;points=[[0,0.5],[1,0.5]];portConstraint=eastwest;rotatable=0;whiteSpace=wrap;html=1;" parent="1" vertex="1">
          <mxGeometry x="222" y="435" width="80" height="30" as="geometry" />
        </mxCell>
        <mxCell id="pFfpm0XYieJXTrMUy0P4-33" value="p-channel" style="text;strokeColor=none;fillColor=none;align=left;verticalAlign=middle;spacingLeft=4;spacingRight=4;overflow=hidden;points=[[0,0.5],[1,0.5]];portConstraint=eastwest;rotatable=0;whiteSpace=wrap;html=1;" parent="1" vertex="1">
          <mxGeometry x="530" y="435" width="80" height="30" as="geometry" />
        </mxCell>
        <mxCell id="pFfpm0XYieJXTrMUy0P4-34" value="n-substrate" style="text;strokeColor=none;fillColor=none;align=left;verticalAlign=middle;spacingLeft=4;spacingRight=4;overflow=hidden;points=[[0,0.5],[1,0.5]];portConstraint=eastwest;rotatable=0;whiteSpace=wrap;html=1;" parent="1" vertex="1">
          <mxGeometry x="374" y="500" width="80" height="30" as="geometry" />
        </mxCell>
        <mxCell id="pFfpm0XYieJXTrMUy0P4-35" value="dielectric" style="text;strokeColor=none;fillColor=none;align=left;verticalAlign=middle;spacingLeft=4;spacingRight=4;overflow=hidden;points=[[0,0.5],[1,0.5]];portConstraint=eastwest;rotatable=0;whiteSpace=wrap;html=1;" parent="1" vertex="1">
          <mxGeometry x="384" y="390" width="80" height="30" as="geometry" />
        </mxCell>
        <mxCell id="gt17f5QqDFvfyBS6hMvT-2" value="" style="ellipse;whiteSpace=wrap;html=1;fillColor=#ffe6cc;strokeColor=#d79b00;" vertex="1" parent="1">
          <mxGeometry x="350" y="760" width="320" height="190" as="geometry" />
        </mxCell>
        <mxCell id="gt17f5QqDFvfyBS6hMvT-3" value="" style="ellipse;whiteSpace=wrap;html=1;fillColor=#dae8fc;strokeColor=#6c8ebf;" vertex="1" parent="1">
          <mxGeometry x="384" y="815" width="120" height="80" as="geometry" />
        </mxCell>
        <mxCell id="gt17f5QqDFvfyBS6hMvT-4" value="" style="ellipse;whiteSpace=wrap;html=1;fillColor=#dae8fc;strokeColor=#6c8ebf;" vertex="1" parent="1">
          <mxGeometry x="520" y="815" width="120" height="80" as="geometry" />
        </mxCell>
        <mxCell id="gt17f5QqDFvfyBS6hMvT-5" value="无关项" style="text;html=1;align=center;verticalAlign=middle;whiteSpace=wrap;rounded=0;" vertex="1" parent="1">
          <mxGeometry x="480" y="780" width="60" height="30" as="geometry" />
        </mxCell>
        <mxCell id="gt17f5QqDFvfyBS6hMvT-6" value="任意项" style="text;html=1;align=center;verticalAlign=middle;whiteSpace=wrap;rounded=0;" vertex="1" parent="1">
          <mxGeometry x="550" y="840" width="60" height="30" as="geometry" />
        </mxCell>
        <mxCell id="gt17f5QqDFvfyBS6hMvT-7" value="约束项" style="text;html=1;align=center;verticalAlign=middle;whiteSpace=wrap;rounded=0;" vertex="1" parent="1">
          <mxGeometry x="414" y="840" width="60" height="30" as="geometry" />
        </mxCell>
      </root>
    </mxGraphModel>
  </diagram>
</mxfile>
